<svg id="Layer_1" data-name="Layer 1" xmlns="http://www.w3.org/2000/svg" viewBox="0 0 597.41 346.29"><defs><style>.cls-1{fill:#f8f8f8;}.cls-2{fill:#ea8e23;}.cls-3{fill:#00455a;}.cls-4{fill:#003444;}.cls-5{fill:#a7a9ac;}</style></defs><path class="cls-1" d="M367.54,239.35C343.44,244,333.14,248,328,254.1c-3.52,4.17,1.6,11.87,3.75,15.49a100.33,100.33,0,0,0,11,7.25,7.55,7.55,0,0,0,3.36,1.88c23.93,12.91,55.91,21.47,59.73,14,.66-1.3,3-8,3-8s.94-5.22,1.42-8.18c0,0,.91-5.76,1.26-11.29.21-3.43,1.23-19.46-5.36-24.63C399.84,235.66,387.59,235.47,367.54,239.35Z"/><path class="cls-1" d="M250.94,231c19.06,1.78,3-1.32,41.42,1.65,22.09,1.7,31.42,3.88,41.2,1.74q5.71-2,12.09-3.76c6.5-1.81,13.52-3.43,21-4.8H236.9A87,87,0,0,1,250.94,231Z"/><path class="cls-1" d="M306.89,273a66.29,66.29,0,0,1-37-.48c-10.35,7.44-30.3,21.23-50.42,33.6H353.79C329.91,288.78,315.55,277.09,306.89,273Z"/><path class="cls-1" d="M210.35,238.36c-20-3.88-32.3-3.69-38.59,1.25-6.59,5.17-5.57,21.2-5.36,24.64.35,5.52,1.26,11.29,1.26,11.29.48,3,1.42,8.17,1.42,8.17s2.35,6.68,3,8c3.73,7.32,34.25-.64,58-13a6.83,6.83,0,0,0,3.78-2.05,102.19,102.19,0,0,0,12.35-8c2.15-3.62,7.27-11.32,3.75-15.49C244.75,247,234.45,243,210.35,238.36Z"/><path class="cls-2" d="M429.15,154.9c17.06,2,48.85-.24,53.3,4.81,4.77,5.41,1.18,12.47-7.39,22.07-24.43,27.36-96.19,37.21-153.52,39.79a139.74,139.74,0,0,1,24.11,9.05c28.38-7.9,66.38-12.14,114.77-8.06l.5.69c2.93-.57,19.74-4,12.84-6.82-5.51-2.23,6-2.62,14.8-7.84,5.68-3.37-15.5-7.41-12-10.63,19.41-17.78,41.73-90.47,27.24-97.26-11.44-5.35-71.75,32.66-96.71,48.94l1,.33A110.6,110.6,0,0,0,429.15,154.9Z"/><path class="cls-2" d="M143.85,324.77a12.17,12.17,0,0,0,5.38-10.53,13.35,13.35,0,0,1-1.62-2.43c-1-2-1.23-3.54-1-9.19-8.49-22.19-33.91-52.86-17.36-72.62a23.82,23.82,0,0,1,11.11.06,48.75,48.75,0,0,0-11-12.05l4.88-6.34c-1.23,1.22,3.06-4,3.06-4l-3.06,4c.25-.25.75-.79,1.59-1.72,27,.85,73.74,8,100.33,15.65,6.44-1.91,13-3.56,19.43-4.9-48.71-4.52-101.84-17.89-116.43-32.69-4.46-4.52-21.82-23.24-18.26-28.3,1.67-2.41,6.79.06,17.32.48,9.44.37,16.45-1.35,30.45-4.81a206,206,0,0,0,31.63-10.55l.73-2h0l.79.28q.82-2.9,1.67-5.8c-25.56-18-79.56-55-88.45-52.84-11.73,2.82-9.73,78.65,2.38,93.58a48.77,48.77,0,0,0,28.75,17.11l-15,4.64c-15,4.63,4.8,9.38,4.8,9.38l-7.47,9.22s-.49,2.43-8,3.34-14-3.9-14.05-.07,14,13.25,14,13.25c-3.93,1.07-7.84,2.16-11.74,3.24a16.72,16.72,0,0,0,11.71,2.77,21.58,21.58,0,0,1-3.87,9.47,19.71,19.71,0,0,1-13.18,7.91c-8.09,1.56-15.65-.95-18.79-2.16-3.4-.87-4.66-.48-5.1.18-1.6,2.41,5.71,11.48,14,16.62a35.34,35.34,0,0,0,19.68,5,21.22,21.22,0,0,1-7,6.25,20.7,20.7,0,0,1-8.62,2.51c-8,.46-12.77-4.37-14.17-2.75-1,1.21.81,4.93,2.82,7.43,4.73,5.9,11.89,6.48,11.71,7.44s-5.5,1-11.52-.43a42.68,42.68,0,0,1-14.94-6.87,36.84,36.84,0,0,0,.22,13.3c2.2,10.67,9.58,21,18.52,28.47C106.38,336.15,126.66,336.86,143.85,324.77ZM202.47,139c-.59,1.56-1.06,2.86-1.43,3.82A7.41,7.41,0,0,1,202.47,139Z"/><path class="cls-2" d="M452.64,255.49c-11.27,36.12,23,84.55,46.13,83.54h0A140.09,140.09,0,0,0,518,317.69c1.66-2.28,5.37-7.54,4-9.18,0,0-1-1.25-16.37,4.82,18.24-23.94,20.4-30.63,18.88-32.2s-6.17,2.93-19.21,5.79a170.3,170.3,0,0,1-18.62,2.71s-6.63-1.16-6.63-2,9.54.73,15.59-4.88c.43-.4,3.07-2.86,2.47-4.33-.79-1.84-5.78.19-12.49-1.62-4.81-1.3-9.83-4.38-9.66-7,.13-1.77,2.71-4.17,2.71-4.17,15-4.68,17.94-8.12,17.85-10.4-.13-3.26-6.49-3.3-15.63-9.71A68.05,68.05,0,0,1,470,235.81C467.55,245.13,460.21,249.83,452.64,255.49Z"/><path class="cls-1" d="M498.77,339c-23.17,1-57.4-47.42-46.13-83.54-9.24,6.91-18.8,15.26-20.2,35.21-1.18,16.83,2.72,21.55-2.34,29.27-3,4.6-.73,5-12.6,9.7a8.91,8.91,0,0,1-.93.72l5.61,15.93h67.74c2.06-1.52,5.16-3.95,8.85-7.29Z"/><path class="cls-1" d="M149.23,314.24a12.17,12.17,0,0,1-5.38,10.53c-17.19,12.09-37.47,11.38-53.63,8.56a61.07,61.07,0,0,0,5.91,4.43,52.14,52.14,0,0,0,10.25,5.3,36.85,36.85,0,0,1,6.67,3.26h52L169.68,323C161.06,322.09,153.33,319.2,149.23,314.24Z"/><path class="cls-1" d="M395.42,329.49A229.78,229.78,0,0,1,373,319.68c-35.77-24.76-55.34-41.58-66.11-46.73a66.29,66.29,0,0,1-37-.48c-13.36,9.61-42.71,29.78-67.78,43.85a39.36,39.36,0,0,1-13.27,5.48l-9.7,24.52H400.92Z"/><path class="cls-1" d="M292.36,232.64c22.09,1.7,31.42,3.88,41.2,1.74q5.71-2,12.09-3.76a139.74,139.74,0,0,0-24.11-9.05c-11.85.53-23.09.75-33.17.75-10.32,0-21.43-.57-32.78-1.62-6.45,1.34-13,3-19.43,4.9A89.64,89.64,0,0,1,250.94,231C270,232.77,254,229.67,292.36,232.64Z"/><path class="cls-1" d="M149,256.63a51.65,51.65,0,0,0-8.62-26.57,23.82,23.82,0,0,0-11.11-.06c-16.55,19.76,8.87,50.43,17.36,72.62.16-3.57.51-8.76,1-16.72C148.62,268.2,149.12,259.35,149,256.63Z"/><path class="cls-3" d="M283.46,160.78A303.19,303.19,0,0,0,398.6,147c-3.93-18.59-8.1-34.43-11.88-47.34C368.94,38.86,346.44-4.22,336.61,2.14c-4.77,3.06-13,13-17.75,19-2.82,3.54-6.58,5.28-10.39,4.7-5.58-.81-13.42-4.12-18.74-15.2-14.28-29.73-49.62,7.33-66,59.14-5.78,18.24-13.12,43.06-20.19,67.58q-.84,2.91-1.67,5.8A301.46,301.46,0,0,0,283.46,160.78Z"/><path class="cls-4" d="M395.42,329.49l5.5,16.83h21.26l-5.61-15.93C411.9,333.65,404.52,332.68,395.42,329.49Z"/><path class="cls-4" d="M169.68,323l-4.62,23.34h14.07l9.7-24.52A59,59,0,0,1,169.68,323Z"/><path class="cls-3" d="M283.46,160.78a301.46,301.46,0,0,1-81.63-17.67l-.79-.28h0l-.73,2a206,206,0,0,1-31.63,10.55c-14,3.46-21,5.18-30.45,4.81-10.53-.42-15.65-2.89-17.32-.48-3.56,5.06,13.8,23.78,18.26,28.3,14.59,14.8,67.72,28.17,116.43,32.69,11.35,1.05,22.46,1.62,32.78,1.62,10.08,0,21.32-.22,33.17-.75,57.33-2.58,129.09-12.43,153.52-39.79,8.57-9.6,12.16-16.66,7.39-22.07-4.45-5.05-36.24-2.82-53.3-4.81A110.6,110.6,0,0,1,408.08,150l-1-.33a76,76,0,0,1-7.69-2.94h0l-.81.26A303.19,303.19,0,0,1,283.46,160.78Zm116-14.08a84.17,84.17,0,0,0,8.67,3.27,44,44,0,0,1-6.22,19.09c-24.19,38.93-118.13,17.46-171.11-6.47C211,153.68,200.78,149,201,142.83a302.07,302.07,0,0,0,82.42,17.95A303.3,303.3,0,0,0,399.41,146.7Z"/><path class="cls-3" d="M345.65,230.62q-6.37,1.75-12.09,3.76c-9.78,2.14-19.11,0-41.2-1.74-38.41-3-22.36.13-41.42-1.65a89.64,89.64,0,0,0-14.78-5.39c-26.59-7.7-73.35-14.8-100.33-15.65-.84.93-1.34,1.47-1.59,1.72L129.36,218a48.75,48.75,0,0,1,11,12.05A51.65,51.65,0,0,1,149,256.63c.11,2.72-.39,11.57-1.4,29.27-.46,8-.81,13.15-1,16.72-.26,5.65,0,7.23,1,9.19a13.35,13.35,0,0,0,1.62,2.43c4.1,5,11.83,7.85,20.45,8.74a59,59,0,0,0,19.15-1.18,39.36,39.36,0,0,0,13.27-5.48c25.07-14.07,54.42-34.24,67.78-43.85a66.29,66.29,0,0,0,37,.48c10.77,5.15,30.34,22,66.11,46.73a229.78,229.78,0,0,0,22.42,9.81c9.1,3.19,16.48,4.16,21.15.9a8.91,8.91,0,0,0,.93-.72c11.87-4.69,9.58-5.1,12.6-9.7,5.06-7.72,1.16-12.44,2.34-29.27,1.4-19.95,11-28.3,20.2-35.21,7.57-5.66,14.91-10.36,17.39-19.68,0,0,0,0,0-.05l-9.13-12.51-.5-.69C412,218.48,374,222.72,345.65,230.62Zm-99.47,38a102.19,102.19,0,0,1-12.35,8,6.83,6.83,0,0,1-3.78,2.05c-23.71,12.38-54.23,20.34-58,13-.66-1.3-3-8-3-8s-.94-5.21-1.42-8.17c0,0-.91-5.77-1.26-11.29-.21-3.44-1.23-19.47,5.36-24.64,6.29-4.94,18.54-5.13,38.59-1.25,24.1,4.66,34.4,8.63,39.58,14.75C253.45,257.28,248.33,265,246.18,268.6Zm96.53,8.24a100.33,100.33,0,0,1-11-7.25c-2.15-3.62-7.27-11.32-3.75-15.49,5.18-6.12,15.48-10.09,39.58-14.75,20-3.88,32.3-3.69,38.59,1.25,6.59,5.17,5.57,21.2,5.36,24.63-.35,5.53-1.26,11.29-1.26,11.29-.48,3-1.42,8.18-1.42,8.18s-2.35,6.68-3,8c-3.82,7.51-35.8-1.05-59.73-14A7.55,7.55,0,0,1,342.71,276.84Z"/><path class="cls-3" d="M134.24,211.67l3.06-4S133,212.89,134.24,211.67Z"/><path d="M322.13,307.16c-6.61-1.8-10.47,9.42-18.62,8.83-6-.45-10-7-10.68-8.22a20.66,20.66,0,0,1-2.82-9.28,27.58,27.58,0,0,1-4.61-.05c0,.64,0,1.31,0,2a23.44,23.44,0,0,1-2.57,9.48c-.24.45-5.14,9.43-12.82,10-9,.72-13.85-10.58-21.13-7.89-.48.18-2.63,1-2.8,2.42-.34,3.19,9.45,7,15.11,8.64,4.58,1.3,7.89,2.24,12.41,1.54,2-.31,8.73-1.39,13.14-7.42a18.28,18.28,0,0,0,1.68-2.81,23.73,23.73,0,0,0,11.51,7.43c5.87,1.56,10.39-.06,17.57-2.62,5-1.77,9.52-3.39,9.73-6.25C327.37,310.75,324.92,307.92,322.13,307.16Z"/><path d="M290,298.49c3.63-.26,8.33-1.34,10.4-5a8.2,8.2,0,0,0,.16-7.77c-2.86-5.16-13.2-7.09-25.51-3.74-.73.77-4.07,4.48-3.11,8.63,1.52,6.55,12.25,7.69,13.34,7.81h.11A27.58,27.58,0,0,0,290,298.49Z"/><path class="cls-5" d="M201,142.8c.37-1,.84-2.26,1.43-3.82A7.41,7.41,0,0,0,201,142.8Z"/><path class="cls-5" d="M399.41,146.7s.06,0,.08,0c-.16,0-.19,0-.08,0Z"/><path class="cls-4" d="M283.46,160.78A302.07,302.07,0,0,1,201,142.83c-.26,6.21,10,10.85,29.71,19.76,53,23.93,146.92,45.4,171.11,6.47A44,44,0,0,0,408.08,150a84.17,84.17,0,0,1-8.67-3.27A303.3,303.3,0,0,1,283.46,160.78Z"/><path d="M369.4,276.46A46.06,46.06,0,0,0,371,262.24c3.11-1.62,25.75,13.77,16.94,4.93.6-4.9-20.1-18.08-32-18.11-5.87,0-14.46,6.16-14.46,7.75,0,2.34,7-2.16,7.08.39.05,1.29,2.6,4.42-.33,4.21-4.27-.3-3.63-1.11-5.32-.34-1.13.54-1.25,3-1,4.77-.57,6.24-.16,7.22,1.47,9,.72.79,2,.63,3.56,1.15,3.27,1.08,8,1.26,16.74,3.55C367.09,281.17,367.83,281.65,369.4,276.46Z"/><path class="cls-3" d="M134,346.32H28.44s-8.87-5.54-1-30.59c3.87-12.33,18.72-21,30.36-23.43s42.08-1.58,50.14,3.18,20.34,10.41,23.25,19.44C139.73,341.39,134,346.32,134,346.32Z"/><path class="cls-1" d="M59.17,346.4a91.47,91.47,0,0,1-3.55-10.71c-.83-3.9-1.32-16.78.63-23.94,1.06-3.9,1.89-6.84,1.89-6.84a58,58,0,0,0-4.87,6.7,37.56,37.56,0,0,0-2.87,14.18c0,6.43.72,14.6,1.21,16.44.6,2.26,1.26,4.17,1.26,4.17Z"/><path class="cls-1" d="M102.42,346.4s2.42-9.93,2.27-16A145,145,0,0,0,103,313.64c-.48-2.9-1.89-8-1.89-8s3.86,4.63,5.08,9.52,2.92,9.83,3.38,15.18-1.55,16-1.55,16Z"/><path class="cls-3" d="M444.79,346.29H550.36s8.87-5.55,1-30.6c-3.86-12.32-18.72-21-30.36-23.43s-42.08-1.58-50.14,3.19-20.34,10.41-23.25,19.43C439.08,341.35,444.79,346.29,444.79,346.29Z"/><path class="cls-1" d="M519.63,346.36a90.78,90.78,0,0,0,3.55-10.71c.83-3.89,1.32-16.78-.63-23.94-1.06-3.89-1.89-6.84-1.89-6.84a57.47,57.47,0,0,1,4.87,6.71,37.26,37.26,0,0,1,2.87,14.17c0,6.44-.71,14.61-1.2,16.44-.61,2.26-1.27,4.17-1.27,4.17Z"/><path class="cls-1" d="M476.38,346.36s-2.42-9.93-2.27-16a144.83,144.83,0,0,1,1.67-16.72c.47-2.9,1.89-8,1.89-8s-3.86,4.62-5.09,9.51-2.91,9.84-3.37,15.19,1.54,16,1.54,16Z"/><path d="M208.19,276.46a46.14,46.14,0,0,1-1.58-14.22c-3.11-1.62-25.74,13.77-16.94,4.93-.6-4.9,20.1-18.08,32-18.11,5.87,0,14.45,6.16,14.45,7.75,0,2.34-7-2.16-7.08.39-.05,1.29-2.59,4.42.34,4.21,4.26-.3,3.63-1.11,5.32-.34,1.13.54,1.24,3,1,4.77.57,6.24.15,7.22-1.48,9-.72.79-2,.63-3.55,1.15-3.28,1.08-8,1.26-16.74,3.55C210.5,281.17,209.75,281.65,208.19,276.46Z"/></svg>