<svg id="Layer_2" data-name="Layer 2" xmlns="http://www.w3.org/2000/svg" xmlns:xlink="http://www.w3.org/1999/xlink" viewBox="0 0 830 610"><defs><style>.cls-1{fill:url(#linear-gradient);}.cls-2{fill:url(#linear-gradient-2);}.cls-3{opacity:0.52;fill:url(#linear-gradient-3);}.cls-4{fill:#ffa337;}.cls-5{fill:url(#linear-gradient-4);}.cls-6{fill:url(#linear-gradient-5);}.cls-7{fill:#f6f6f6;}.cls-8{fill:url(#linear-gradient-6);}.cls-9{fill:url(#linear-gradient-7);}.cls-10{fill:url(#linear-gradient-8);}.cls-11{fill:url(#linear-gradient-9);}.cls-12{fill:url(#linear-gradient-10);}.cls-13{fill:url(#radial-gradient);}</style><linearGradient id="linear-gradient" x1="415" y1="298.76" x2="415" y2="173.56" gradientUnits="userSpaceOnUse"><stop offset="0.14" stop-color="#f6f6f6" stop-opacity="0"/><stop offset="0.19" stop-color="#f6f6f6" stop-opacity="0.19"/><stop offset="0.26" stop-color="#f6f6f6" stop-opacity="0.44"/><stop offset="0.33" stop-color="#f6f6f6" stop-opacity="0.64"/><stop offset="0.4" stop-color="#f6f6f6" stop-opacity="0.79"/><stop offset="0.46" stop-color="#f6f6f6" stop-opacity="0.91"/><stop offset="0.51" stop-color="#f6f6f6" stop-opacity="0.98"/><stop offset="0.55" stop-color="#f6f6f6"/></linearGradient><linearGradient id="linear-gradient-2" x1="415" y1="269.23" x2="415" y2="394.43" gradientUnits="userSpaceOnUse"><stop offset="0" stop-color="#f6f6f6"/><stop offset="0.16" stop-color="#f6f6f6" stop-opacity="0.99"/><stop offset="0.3" stop-color="#f6f6f6" stop-opacity="0.94"/><stop offset="0.43" stop-color="#f6f6f6" stop-opacity="0.87"/><stop offset="0.57" stop-color="#f6f6f6" stop-opacity="0.76"/><stop offset="0.7" stop-color="#f6f6f6" stop-opacity="0.63"/><stop offset="0.82" stop-color="#f6f6f6" stop-opacity="0.46"/><stop offset="0.86" stop-color="#f6f6f6" stop-opacity="0.4"/></linearGradient><linearGradient id="linear-gradient-3" x1="415" y1="221.78" x2="415" y2="341.08" gradientUnits="userSpaceOnUse"><stop offset="0.2" stop-color="#f6f6f6"/><stop offset="0.78" stop-color="#f6f6f6" stop-opacity="0.4"/></linearGradient><linearGradient id="linear-gradient-4" x1="443.32" y1="283.76" x2="360.59" y2="283.76" gradientUnits="userSpaceOnUse"><stop offset="0.17" stop-color="#f6f6f6"/><stop offset="0.21" stop-color="#f7ecde"/><stop offset="0.33" stop-color="#fad6ac"/><stop offset="0.44" stop-color="#fbc382"/><stop offset="0.54" stop-color="#fdb561"/><stop offset="0.64" stop-color="#feab4a"/><stop offset="0.74" stop-color="#ffa53c"/><stop offset="0.82" stop-color="#ffa337"/></linearGradient><linearGradient id="linear-gradient-5" x1="415" y1="365.59" x2="415" y2="304.58" gradientUnits="userSpaceOnUse"><stop offset="0" stop-color="#f6f6f6"/><stop offset="0.07" stop-color="#f6f6f6" stop-opacity="0.99"/><stop offset="0.14" stop-color="#f6f6f6" stop-opacity="0.94"/><stop offset="0.21" stop-color="#f6f6f6" stop-opacity="0.87"/><stop offset="0.27" stop-color="#f6f6f6" stop-opacity="0.76"/><stop offset="0.33" stop-color="#f6f6f6" stop-opacity="0.63"/><stop offset="0.39" stop-color="#f6f6f6" stop-opacity="0.46"/><stop offset="0.41" stop-color="#f6f6f6" stop-opacity="0.4"/><stop offset="0.43" stop-color="#f6f6f6" stop-opacity="0.5"/><stop offset="0.48" stop-color="#f6f6f6" stop-opacity="0.65"/><stop offset="0.52" stop-color="#f6f6f6" stop-opacity="0.78"/><stop offset="0.56" stop-color="#f6f6f6" stop-opacity="0.88"/><stop offset="0.61" stop-color="#f6f6f6" stop-opacity="0.95"/><stop offset="0.66" stop-color="#f6f6f6" stop-opacity="0.99"/><stop offset="0.72" stop-color="#f6f6f6"/></linearGradient><linearGradient id="linear-gradient-6" x1="478.07" y1="54" x2="550.71" y2="54" gradientUnits="userSpaceOnUse"><stop offset="0" stop-color="#fff" stop-opacity="0"/><stop offset="0.92" stop-color="#f6f6f6"/></linearGradient><linearGradient id="linear-gradient-7" x1="379.93" y1="507.54" x2="452.57" y2="507.54" xlink:href="#linear-gradient-6"/><linearGradient id="linear-gradient-8" x1="703.71" y1="506.53" x2="776.35" y2="506.53" xlink:href="#linear-gradient-6"/><linearGradient id="linear-gradient-9" x1="48.12" y1="437.15" x2="120.76" y2="437.15" xlink:href="#linear-gradient-6"/><linearGradient id="linear-gradient-10" x1="122.86" y1="99.57" x2="195.5" y2="99.57" xlink:href="#linear-gradient-6"/><radialGradient id="radial-gradient" cx="417.17" cy="315.38" fx="443.3612383703191" fy="302.3804301416927" r="299.14" gradientUnits="userSpaceOnUse"><stop offset="0" stop-color="#fff" stop-opacity="0"/><stop offset="0.09" stop-color="#fff" stop-opacity="0.01"/><stop offset="0.15" stop-color="#fff" stop-opacity="0.05"/><stop offset="0.19" stop-color="#fefefe" stop-opacity="0.11"/><stop offset="0.24" stop-color="#fdfdfd" stop-opacity="0.19"/><stop offset="0.28" stop-color="#fcfcfc" stop-opacity="0.3"/><stop offset="0.32" stop-color="#fbfbfb" stop-opacity="0.44"/><stop offset="0.35" stop-color="#fafafa" stop-opacity="0.6"/><stop offset="0.38" stop-color="#f8f8f8" stop-opacity="0.78"/><stop offset="0.42" stop-color="#f6f6f6" stop-opacity="0.99"/><stop offset="0.42" stop-color="#f6f6f6"/></radialGradient></defs><path class="cls-1" d="M408.45,213.59l-56.05,48H477.6l-56.05-48A10.07,10.07,0,0,0,408.45,213.59Z"/><polygon class="cls-2" points="415 315.24 352.4 261.61 352.4 348.39 477.6 348.39 477.6 261.61 415 315.24"/><path class="cls-3" d="M352.4,261.61,415,315.24l62.6-53.63ZM409.64,295l3.43-9.74a4.84,4.84,0,1,1,3.86,0l3.43,9.74H409.64Z"/><path class="cls-4" d="M415,315.24l20.45-17.52c4.1-7.74,7.18-18,7.18-31.18L415,252.28V276a4.84,4.84,0,0,1,1.93,9.28l3.43,9.74H415Z"/><path class="cls-5" d="M415,315.24V295h-5.36l3.43-9.74A4.84,4.84,0,0,1,415,276V252.28l-27.63,14.26c0,13.23,3.08,23.44,7.18,31.18Z"/><path class="cls-6" d="M408.45,300.37l-56.05,48H477.6l-56.05-48A10.07,10.07,0,0,0,408.45,300.37Z"/><path class="cls-7" d="M408.45,300.37l-56.05,48H477.6l-56.05-48A10.07,10.07,0,0,0,408.45,300.37Z"/><path class="cls-8" d="M547.33,57.65A37.1,37.1,0,0,1,510.48,91.1h-.07v-10A27.1,27.1,0,0,0,513.08,27a26.68,26.68,0,0,0-2.67-.14v-10q1.81,0,3.66.18a37.09,37.09,0,0,1,33.26,40.57ZM511.41,55V75.86l18.07-10.43V44.56Zm-1-22.87V53l18.07-10.44Z"/><path class="cls-7" d="M481.72,30.47a36.82,36.82,0,0,1,25-13.39q1.85-.18,3.66-.18v10A27.11,27.11,0,0,0,493.23,75a26.89,26.89,0,0,0,17.18,6.14v10h-.07a37.11,37.11,0,0,1-28.62-60.63Zm9.62,14.09V65.43l18.07,10.43V55Zm1-2L510.41,53V32.13Z"/><path class="cls-9" d="M449.19,511.19a37.1,37.1,0,0,1-36.85,33.45h-.07v-10a27.11,27.11,0,0,0,0-54.21v-10q1.82,0,3.66.18a37.09,37.09,0,0,1,33.26,40.57Zm-35.92-2.65V529.4L431.34,519V498.1Zm-1-22.87v20.87l18.07-10.44Z"/><path class="cls-10" d="M773,510.18a37.1,37.1,0,0,1-36.85,33.45h-.07v-10a27.11,27.11,0,0,0,0-54.21v-10q1.82,0,3.66.18A37.09,37.09,0,0,1,773,510.18Zm-35.92-2.65v20.86L755.13,518V497.09Zm-1-22.87v20.87l18.07-10.44Z"/><path class="cls-11" d="M117.38,440.8a37.1,37.1,0,0,1-36.85,33.45h-.07v-10a27.11,27.11,0,0,0,0-54.21v-10q1.82,0,3.66.18a37.09,37.09,0,0,1,33.26,40.57Zm-35.92-2.65V459l18.07-10.43V427.71Zm-1-22.87v20.87l18.07-10.44Z"/><path class="cls-7" d="M51.77,413.62a36.82,36.82,0,0,1,25-13.39q1.85-.18,3.66-.18v10a27.11,27.11,0,1,0,0,54.21v10h-.07a37.11,37.11,0,0,1-28.62-60.63Zm9.62,14.09v20.87L79.46,459V438.15Zm1-2,18.07,10.44V415.28Z"/><path class="cls-12" d="M192.13,103.22a37.1,37.1,0,0,1-36.85,33.45h-.07v-10a27.11,27.11,0,0,0,0-54.21v-10q1.81,0,3.66.18a37.09,37.09,0,0,1,33.26,40.57Zm-35.92-2.65v20.86L174.28,111V90.13Zm-1-22.87V98.57l18.07-10.44Z"/><path class="cls-7" d="M126.52,76a36.82,36.82,0,0,1,25-13.39q1.84-.18,3.66-.18v10a27.11,27.11,0,1,0,0,54.21v10h-.07A37.11,37.11,0,0,1,126.52,76Zm9.62,14.09V111l18.07,10.43V100.57Zm1-2,18.07,10.44V77.7Z"/><path class="cls-13" d="M205.86,442.29H117.23v-10h84.49L301.79,332.22H352.4v10H305.93ZM717,518l18.07,10.43V507.53L717,497.09Zm19.07-12.43V484.66L718,495.09Zm-3.66-35.92a36.88,36.88,0,0,0-19.15,7.65l-83.83-83.83V335l-33-33H477.6v10H592.31l27.11,27.11v58.47l86.85,86.84A37.1,37.1,0,0,0,736,543.63h.07v-10a27.11,27.11,0,0,1,0-54.21v-10Q734.25,469.43,732.4,469.61ZM622.93,464a16.24,16.24,0,1,1-30.69-7.38L545.59,410V351.52L536.05,342H477.6V332h62.6l15.39,15.39v58.47l43.72,43.72A16.21,16.21,0,0,1,622.93,464Zm-10,0a6.24,6.24,0,1,0-6.24,6.24A6.25,6.25,0,0,0,612.93,464ZM494.65,533.17l-27.1,27.1a16.33,16.33,0,1,1-7.13-7L484.65,529v-60.5l-51.76-51.76V348.39h10v64.24l51.76,51.76Zm-35.26,34.59a6.24,6.24,0,1,0-6.24,6.24A6.25,6.25,0,0,0,459.39,567.76Zm76.5,0a16.24,16.24,0,1,1-21.24-15.44V456.1l-51.76-51.76V348.39h10V400.2L524.65,452V552.32A16.26,16.26,0,0,1,535.89,567.76Zm-10,0a6.24,6.24,0,1,0-6.24,6.24A6.25,6.25,0,0,0,525.89,567.76ZM757.87,305a16.23,16.23,0,0,1-31.68,5H632.75l-28-28H477.6V272H608.88l28,28h89.3a16.23,16.23,0,0,1,31.68,5Zm-10,0a6.24,6.24,0,1,0-6.24,6.24A6.25,6.25,0,0,0,747.87,305ZM352.33,274.54v10H263.38L194,215.18H108.15a16.24,16.24,0,1,1,0-10h90l69.36,69.36ZM98.94,210.18a6.24,6.24,0,1,0-6.24,6.24A6.25,6.25,0,0,0,98.94,210.18Zm253.46,92v10H273.19l-50.65,50.65H152.26a16.24,16.24,0,1,1,0-10H218.4l50.65-50.65ZM143.06,357.87a6.24,6.24,0,1,0-6.24,6.24A6.25,6.25,0,0,0,143.06,357.87Zm573.1-242.08a16.21,16.21,0,0,1-23.62,14.45l-83.35,83.35H530.06L477.6,266.05v-4.44h.18l-5.32-4.56,53.46-53.46h79.13l80.42-80.42a16.23,16.23,0,1,1,30.69-7.38Zm-10,0a6.24,6.24,0,1,0-6.24,6.24A6.25,6.25,0,0,0,706.16,115.79Zm-32.3-.13a16.25,16.25,0,0,1-16.24,16.24,16.09,16.09,0,0,1-7.38-1.79l-53.48,53.48H517.63l-60.49,60.49-7.61-6.52,64-64h79.13L643.17,123a16.23,16.23,0,1,1,30.69-7.38Zm-10,0a6.24,6.24,0,1,0-6.24,6.24A6.25,6.25,0,0,0,663.86,115.66Zm-263.34,20,28.27-28.27A16.06,16.06,0,0,1,427,100a16.24,16.24,0,1,1,16.24,16.24,16.06,16.06,0,0,1-7.38-1.79l-25.34,25.35v72.39a9.86,9.86,0,0,0-2.07,1.36l-7.93,6.79ZM437,100a6.24,6.24,0,1,0,6.24-6.23A6.25,6.25,0,0,0,437,100Zm-81.15,26.43-49-49a16,16,0,0,1-7.37,1.79A16.24,16.24,0,1,1,315.69,63a16,16,0,0,1-1.79,7.37l52,52V208l22.69,22.69-7.62,6.52L355.85,212.1ZM305.69,63a6.24,6.24,0,1,0-6.23,6.23A6.23,6.23,0,0,0,305.69,63ZM393.2,519l18.07,10.43V508.54L393.2,498.1Zm19.07-12.43V485.67L394.2,496.1Zm-22.55-28.47-27.43-27.43V406.47l58.07-58.08H406.22l-53.93,53.94v52.45l30.39,30.39a37.1,37.1,0,0,0,29.52,59.47h.07v-10a27.11,27.11,0,0,1,0-54.21v-10q-1.81,0-3.66.18A36.83,36.83,0,0,0,389.72,478.07ZM377.94,348.39,332.29,394v73.17l-60.65,60.64a16.06,16.06,0,0,1,1.79,7.38A16.24,16.24,0,1,1,257.2,519a16,16,0,0,1,7.37,1.79l57.72-57.72V389.9l41.5-41.51ZM263.43,535.23a6.24,6.24,0,1,0-6.23,6.23A6.23,6.23,0,0,0,263.43,535.23ZM510.48,91.1h-.07V89.72h-5v49.52L426.68,218l7.61,6.52,81.12-81.11V90.77A38.39,38.39,0,0,1,510.48,91.1ZM279.25,163.78h-53l-41.61-41.61a37.36,37.36,0,0,1-5.91,6.09c-.4.33-.79.64-1.2.94l44.58,44.58h53l83,83,7.62-6.53Z"/></svg>