<svg width="650" height="450" viewBox="0 0 650 450" fill="none" xmlns="http://www.w3.org/2000/svg">
<g clip-path="url(#clip0_312_751)">
<path d="M162.49 204.55V320.84C117.2 321 54.7199 306.05 34.6899 277C34.6899 277 38.6899 273.63 86.9699 273.63C86.9699 273.63 100.42 225.94 131.91 181.3C131.91 181.31 150.26 190.18 162.49 204.55ZM162.49 334.18V370.64C162.49 370.64 124.15 392.26 89.2899 415C88.0936 415.794 86.6409 416.104 85.2248 415.868C83.8087 415.632 82.5347 414.868 81.6599 413.73C69.3999 397.5 69.6899 338 76.9999 318.17C76.9999 318.17 109.06 333.11 162.49 334.18ZM142.49 353.18C125.595 351.832 108.858 348.94 92.4899 344.54C91.5699 351.77 91.0899 355.68 91.8699 363.4C92.5199 369.84 93.0999 373.65 95.1399 377.2C96.0092 378.719 97.4043 379.868 99.0621 380.43C100.72 380.992 102.526 380.928 104.14 380.25C135.85 366.88 142.49 353.17 142.49 353.17V353.18Z" fill="url(#paint0_linear_312_751)"/>
<path d="M236.46 293.1C245.771 293.096 254.983 295.012 263.52 298.73C275.05 292.73 284.52 285.45 290.29 277.01C290.29 277.01 286.29 273.64 238.01 273.64C238.01 273.64 224.55 225.95 193.06 181.31C193.06 181.31 174.72 190.18 162.49 204.55V320.84C168.8 320.84 175.44 320.58 182.26 320.02C188.603 311.653 196.797 304.869 206.2 300.198C215.604 295.528 225.961 293.098 236.46 293.1Z" fill="#F6F6F6"/>
<path d="M168.34 361.22C168.335 351.744 170.317 342.372 174.16 333.71C170.39 333.93 166.51 334.1 162.49 334.18V370.64C162.49 370.64 165.16 372.15 169.7 374.76C168.795 370.303 168.34 365.767 168.34 361.22Z" fill="#F6F6F6"/>
<path d="M561.15 269L509.37 320.78H437C435.219 315.431 431.592 310.89 426.769 307.971C421.946 305.052 416.242 303.944 410.677 304.846C405.112 305.748 400.049 308.601 396.396 312.895C392.742 317.189 390.736 322.642 390.736 328.28C390.736 333.918 392.742 339.371 396.396 343.665C400.049 347.959 405.112 350.812 410.677 351.714C416.242 352.616 421.946 351.508 426.769 348.589C431.592 345.67 435.219 341.129 437 335.78H515.61L567.36 284H695.46V269H561.15ZM414.45 337C412.721 337 411.032 336.487 409.594 335.527C408.157 334.567 407.037 333.202 406.375 331.605C405.714 330.008 405.541 328.25 405.878 326.555C406.215 324.859 407.048 323.302 408.27 322.08C409.492 320.858 411.049 320.025 412.745 319.688C414.44 319.351 416.198 319.524 417.795 320.185C419.392 320.847 420.757 321.967 421.717 323.404C422.677 324.842 423.19 326.531 423.19 328.26C423.187 330.577 422.266 332.799 420.627 334.437C418.989 336.076 416.767 336.997 414.45 337ZM680 24L542.39 161.7H351.75C349.969 156.351 346.342 151.81 341.519 148.891C336.696 145.972 330.992 144.864 325.427 145.766C319.862 146.668 314.799 149.521 311.146 153.815C307.492 158.109 305.486 163.562 305.486 169.2C305.486 174.838 307.492 180.291 311.146 184.585C314.799 188.879 319.862 191.732 325.427 192.634C330.992 193.536 336.696 192.428 341.519 189.509C346.342 186.59 349.969 182.049 351.75 176.7H548.6L690.6 34.7L680 24ZM329.23 177.94C327.503 177.934 325.816 177.416 324.382 176.452C322.949 175.489 321.834 174.121 321.177 172.524C320.52 170.926 320.351 169.17 320.692 167.477C321.032 165.783 321.867 164.229 323.09 163.009C324.314 161.79 325.871 160.961 327.566 160.626C329.26 160.291 331.016 160.466 332.611 161.128C334.207 161.791 335.57 162.911 336.529 164.347C337.488 165.784 338 167.473 338 169.2C337.995 171.522 337.068 173.746 335.424 175.385C333.779 177.024 331.552 177.943 329.23 177.94ZM685.61 88.67L566.39 205.76H384.06L275.87 311.34C264.666 302.433 250.773 297.589 236.46 297.6V313.6C248.969 313.781 260.904 318.878 269.685 327.787C278.467 336.697 283.39 348.705 283.39 361.215C283.39 373.725 278.467 385.733 269.685 394.643C260.904 403.552 248.969 408.649 236.46 408.83V424.83C248.392 424.839 260.086 421.488 270.204 415.162C280.321 408.836 288.454 399.789 293.67 389.057C298.887 378.326 300.977 366.342 299.702 354.478C298.427 342.614 293.838 331.348 286.46 321.97L390.16 220.76H572.53L696.12 99.38L685.61 88.67Z" fill="url(#paint1_linear_312_751)"/>
<path d="M248.76 330.52L240 373C239.847 373.827 239.404 374.572 238.752 375.103C238.1 375.634 237.281 375.917 236.44 375.9V326.15H245.17C245.712 326.146 246.248 326.264 246.739 326.494C247.23 326.724 247.663 327.061 248.007 327.479C248.351 327.898 248.597 328.388 248.728 328.914C248.858 329.441 248.869 329.989 248.76 330.52Z" fill="#F6F6F6"/>
<path d="M188.84 361.22C188.856 373.844 193.878 385.946 202.806 394.871C211.733 403.797 223.836 408.817 236.46 408.83V424.83C228.039 424.936 219.681 423.368 211.87 420.218C204.059 417.069 196.952 412.4 190.959 406.482C184.967 400.565 180.209 393.516 176.962 385.745C173.715 377.975 172.042 369.637 172.042 361.215C172.042 352.793 173.715 344.455 176.962 336.685C180.209 328.914 184.967 321.865 190.959 315.948C196.952 310.03 204.059 305.361 211.87 302.211C219.681 299.062 228.039 297.494 236.46 297.6V313.6C223.835 313.613 211.73 318.635 202.802 327.562C193.875 336.49 188.853 348.594 188.84 361.22ZM227.72 326.15C227.18 326.149 226.646 326.269 226.158 326.5C225.67 326.732 225.239 327.069 224.897 327.487C224.555 327.905 224.311 328.395 224.182 328.919C224.053 329.444 224.042 329.991 224.15 330.52L232.89 373C233.044 373.828 233.488 374.575 234.142 375.106C234.796 375.638 235.618 375.919 236.46 375.9V326.15H227.72ZM228.6 391.32C228.6 393.405 229.428 395.404 230.902 396.878C232.376 398.352 234.375 399.18 236.46 399.18V383.47C234.377 383.47 232.38 384.297 230.906 385.769C229.432 387.24 228.603 389.237 228.6 391.32Z" fill="url(#paint2_linear_312_751)"/>
<path d="M244.31 391.32C244.31 393.403 243.483 395.401 242.011 396.874C240.539 398.348 238.543 399.177 236.46 399.18V383.47C238.541 383.473 240.536 384.301 242.008 385.772C243.479 387.244 244.307 389.239 244.31 391.32Z" fill="#F6F6F6"/>
</g>
<defs>
<linearGradient id="paint0_linear_312_751" x1="243.32" y1="298.61" x2="17.5299" y2="298.61" gradientUnits="userSpaceOnUse">
<stop offset="0.0729167" stop-color="#F6F6F6"/>
<stop offset="1" stop-color="#00455A"/>
</linearGradient>
<linearGradient id="paint1_linear_312_751" x1="756.3" y1="89.47" x2="353.96" y2="293.69" gradientUnits="userSpaceOnUse">
<stop offset="0.05" stop-color="white" stop-opacity="0"/>
<stop offset="0.12" stop-color="white" stop-opacity="0.04"/>
<stop offset="0.25" stop-color="#FEFEFE" stop-opacity="0.15"/>
<stop offset="0.42" stop-color="#FCFCFC" stop-opacity="0.33"/>
<stop offset="0.62" stop-color="#FAFAFA" stop-opacity="0.58"/>
<stop offset="0.84" stop-color="#F7F7F7" stop-opacity="0.9"/>
<stop offset="0.91" stop-color="#F6F6F6"/>
</linearGradient>
<linearGradient id="paint2_linear_312_751" x1="272.2" y1="361.21" x2="154.91" y2="361.21" gradientUnits="userSpaceOnUse">
<stop stop-color="white" stop-opacity="0.994792"/>
<stop offset="1" stop-color="#00455A"/>
</linearGradient>
<clipPath id="clip0_312_751">
<rect width="650" height="450" fill="white"/>
</clipPath>
</defs>
</svg>
