<svg id="Layer_2" data-name="Layer 2" xmlns="http://www.w3.org/2000/svg" xmlns:xlink="http://www.w3.org/1999/xlink" viewBox="0 0 629 210"><defs><style>.cls-1{fill:url(#linear-gradient);}.cls-2{fill:url(#linear-gradient-2);}.cls-3{fill:url(#linear-gradient-3);}</style><linearGradient id="linear-gradient" x1="388.97" y1="-38.64" x2="577.42" y2="86.95" gradientUnits="userSpaceOnUse"><stop offset="0.04" stop-color="#fff" stop-opacity="0"/><stop offset="0.16" stop-color="#fefefe" stop-opacity="0.13"/><stop offset="0.42" stop-color="#fbfbfb" stop-opacity="0.45"/><stop offset="0.81" stop-color="#f6f6f6" stop-opacity="0.96"/><stop offset="0.84" stop-color="#f6f6f6"/></linearGradient><linearGradient id="linear-gradient-2" x1="-21.74" y1="-47.76" x2="214.05" y2="151.68" gradientUnits="userSpaceOnUse"><stop offset="0.18" stop-color="#fff" stop-opacity="0"/><stop offset="0.97" stop-color="#f6f6f6"/></linearGradient><linearGradient id="linear-gradient-3" x1="340.61" y1="77.29" x2="413.26" y2="77.29" gradientUnits="userSpaceOnUse"><stop offset="0" stop-color="#fff" stop-opacity="0"/><stop offset="0.92" stop-color="#f6f6f6"/></linearGradient></defs><path class="cls-1" d="M589,52.8A16.26,16.26,0,0,0,573.52,64h-79L399.32-31.14l-7.07,7.07L490.36,74h83.16A16.23,16.23,0,1,0,589,52.8Zm0,22.47A6.24,6.24,0,1,1,595.2,69,6.24,6.24,0,0,1,589,75.27Z"/><path class="cls-2" d="M353.89,67.85V88.72L372,99.15V78.29Zm1-2L373,76.29V55.42Zm-213.06,103a16.26,16.26,0,0,0-15.44,11.24H-31.29v10H126.39a16.23,16.23,0,1,0,15.44-21.24Zm0,22.47a6.24,6.24,0,1,1,6.23-6.23A6.24,6.24,0,0,1,141.83,191.29Zm182.06-26.14a16.27,16.27,0,0,0-15.44,11.24h-85L189,141.88H-31.29v10h216.1l34.51,34.51h89.13a16.24,16.24,0,1,0,15.44-21.24Zm0,22.47a6.24,6.24,0,1,1,6.24-6.23A6.23,6.23,0,0,1,323.89,187.62Zm31-121.77L373,76.29V55.42Zm-1,2V88.72L372,99.15V78.29Zm0,0V88.72L372,99.15V78.29Zm1-2L373,76.29V55.42Zm0,0L373,76.29V55.42Zm-1,22.87L372,99.15V78.29L353.89,67.85ZM336.2,72.36v-.07H286.74l-39.63,39.63H37.73L-21.93,52.25-29,59.33l62.59,62.59H251.25l39.63-39.63h45.31v-.08a37.18,37.18,0,0,0,33.12,32c1.22.12,2.43.18,3.65.18v-10a26.66,26.66,0,0,1-2.67-.13,27.11,27.11,0,0,1,2.65-54.08h0v-10A37.14,37.14,0,0,0,336.2,72.36ZM373,76.29V55.42L354.89,65.85ZM353.89,88.72,372,99.15V78.29L353.89,67.85Zm0-20.87V88.72L372,99.15V78.29Zm1-2L373,76.29V55.42Zm0,0L373,76.29V55.42Zm-1,2V88.72L372,99.15V78.29Z"/><path class="cls-3" d="M409.88,80.94A37.1,37.1,0,0,1,373,114.39H373v-10a27.11,27.11,0,0,0,0-54.21v-10q1.82,0,3.66.18a37.09,37.09,0,0,1,33.26,40.57ZM374,78.29V99.15L392,88.72V67.85Zm-1-22.87V76.29L391,65.85Z"/></svg>