<svg id="Layer_2" data-name="Layer 2" xmlns="http://www.w3.org/2000/svg" xmlns:xlink="http://www.w3.org/1999/xlink" viewBox="0 0 505.24 218.01"><defs><style>.cls-1{fill:url(#linear-gradient);}.cls-2{fill:#ffa337;}.cls-3{fill:url(#linear-gradient-2);}.cls-4{fill:url(#linear-gradient-3);}.cls-5{fill:url(#linear-gradient-4);}</style><linearGradient id="linear-gradient" x1="319.12" y1="121.83" x2="540.38" y2="121.83" gradientUnits="userSpaceOnUse"><stop offset="0" stop-color="#ffa337" stop-opacity="0"/><stop offset="0.05" stop-color="#ffa337" stop-opacity="0.12"/><stop offset="0.22" stop-color="#ffa337" stop-opacity="0.49"/><stop offset="0.36" stop-color="#ffa337" stop-opacity="0.76"/><stop offset="0.46" stop-color="#ffa337" stop-opacity="0.93"/><stop offset="0.51" stop-color="#ffa337"/></linearGradient><linearGradient id="linear-gradient-2" x1="408.99" y1="118.73" x2="243.53" y2="118.73" gradientUnits="userSpaceOnUse"><stop offset="0.03" stop-color="#ffa337" stop-opacity="0"/><stop offset="0.17" stop-color="#ffa337" stop-opacity="0.22"/><stop offset="0.34" stop-color="#ffa337" stop-opacity="0.46"/><stop offset="0.5" stop-color="#ffa337" stop-opacity="0.65"/><stop offset="0.65" stop-color="#ffa337" stop-opacity="0.8"/><stop offset="0.79" stop-color="#ffa337" stop-opacity="0.91"/><stop offset="0.91" stop-color="#ffa337" stop-opacity="0.98"/><stop offset="1" stop-color="#ffa337"/></linearGradient><linearGradient id="linear-gradient-3" x1="318.3" y1="57.61" x2="495.13" y2="57.61" gradientUnits="userSpaceOnUse"><stop offset="0" stop-color="#ffa337" stop-opacity="0"/><stop offset="0.08" stop-color="#ffa337" stop-opacity="0.05"/><stop offset="0.24" stop-color="#ffa337" stop-opacity="0.19"/><stop offset="0.45" stop-color="#ffa337" stop-opacity="0.42"/><stop offset="0.7" stop-color="#ffa337" stop-opacity="0.73"/><stop offset="0.91" stop-color="#ffa337"/></linearGradient><linearGradient id="linear-gradient-4" x1="-58.89" y1="103.5" x2="402.5" y2="103.5" gradientUnits="userSpaceOnUse"><stop offset="0.03" stop-color="#ffa337" stop-opacity="0"/><stop offset="0.18" stop-color="#ffa337" stop-opacity="0.18"/><stop offset="0.54" stop-color="#ffa337" stop-opacity="0.64"/><stop offset="0.81" stop-color="#ffa337"/></linearGradient></defs><path class="cls-1" d="M461.38,51.13v119.5L386,192.25a7,7,0,0,1-8.93-6.72V155.87a7,7,0,0,1,2.05-5l6.5-6.5V83a7,7,0,0,1,2-5l6.84-6.84a7.08,7.08,0,0,1,3.05-1.8Z"/><path class="cls-2" d="M352.35,52.24V99.71h0a9.68,9.68,0,0,1,3.87,18.56l6.86,19.48H352.35v47.48s11.93-5.43,24.7-19.2V155.87a7,7,0,0,1,2.05-5l6.5-6.5V83a7,7,0,0,1,2-5l5-5Z"/><path class="cls-3" d="M341.63,137.75l6.86-19.48a9.68,9.68,0,0,1,3.86-18.56V52.24L297.09,80.75c0,79.33,55.26,104.48,55.26,104.48V137.75Z"/><path class="cls-4" d="M385.6,85V83a7,7,0,0,1,2-5l6.84-6.84a7.08,7.08,0,0,1,3.05-1.8l63.84-18.31L382.05,28.32a7,7,0,0,0-6.87,1.78l-5.28,5.28a7.07,7.07,0,0,0-2.07,5V80.75l12.88,6.42Z"/><path class="cls-5" d="M297.75,95.32H210.14L155.42,40.59a15.14,15.14,0,1,0-7.07,7.07L206,105.32h93C298.49,102.1,298.06,98.77,297.75,95.32ZM141.83,39.16a5.09,5.09,0,1,1,5.09-5.09A5.09,5.09,0,0,1,141.83,39.16Zm161,82.75H196.44L128.57,54H59.39a15.09,15.09,0,1,0,0,10h65l67.87,67.87h114C305,128.74,303.84,125.41,302.8,121.91ZM45.17,64.13A5.09,5.09,0,1,1,50.26,59,5.1,5.1,0,0,1,45.17,64.13Zm266.69,79.78H221.34l-24,24h-78a15.09,15.09,0,1,0,0,10h82.12l24-24H318A110.87,110.87,0,0,1,311.86,143.91ZM105.14,178a5.09,5.09,0,1,1,5.09-5.09A5.1,5.1,0,0,1,105.14,178Z"/></svg>